<svg width="48" height="48" viewBox="0 0 48 48" fill="none" xmlns="http://www.w3.org/2000/svg">
<rect x="0.5" y="0.5" width="47" height="47" rx="23.5" fill="#173432"/>
<rect x="0.5" y="0.5" width="47" height="47" rx="23.5" stroke="#455D5B"/>
<path d="M32.1311 31.8478L26.2623 22.6247L32.0532 16.2544C32.1842 16.1067 32.2517 15.9134 32.2411 15.7164C32.2305 15.5193 32.1427 15.3343 31.9966 15.2016C31.8505 15.0689 31.6581 14.9991 31.4609 15.0073C31.2637 15.0155 31.0777 15.1012 30.9432 15.2456L25.427 21.3131L21.631 15.3478C21.5634 15.2413 21.4699 15.1535 21.3593 15.0927C21.2486 15.0319 21.1245 15 20.9982 15H16.4982C16.3638 14.9999 16.2317 15.036 16.116 15.1045C16.0003 15.173 15.9051 15.2713 15.8404 15.3892C15.7757 15.5071 15.7439 15.6402 15.7483 15.7746C15.7527 15.909 15.7931 16.0397 15.8654 16.1531L21.7342 25.3753L15.9432 31.7503C15.8756 31.823 15.8231 31.9083 15.7887 32.0014C15.7543 32.0945 15.7387 32.1935 15.7428 32.2927C15.747 32.3918 15.7708 32.4892 15.8128 32.5791C15.8549 32.669 15.9143 32.7496 15.9878 32.8164C16.0612 32.8831 16.1472 32.9346 16.2407 32.9679C16.3342 33.0012 16.4334 33.0156 16.5325 33.0103C16.6316 33.0049 16.7286 32.98 16.818 32.9369C16.9074 32.8937 16.9874 32.8333 17.0532 32.7591L22.5695 26.6916L26.3654 32.6569C26.4337 32.7625 26.5274 32.8494 26.638 32.9093C26.7486 32.9693 26.8724 33.0005 26.9982 33H31.4982C31.6326 33 31.7644 32.9638 31.88 32.8954C31.9956 32.827 32.0907 32.7288 32.1554 32.611C32.22 32.4933 32.2519 32.3604 32.2476 32.2261C32.2433 32.0918 32.2031 31.9612 32.1311 31.8478ZM27.4098 31.5L17.8642 16.5H20.5829L30.1323 31.5H27.4098Z" fill="white"/>
</svg>
