<svg width="48" height="48" viewBox="0 0 48 48" fill="none" xmlns="http://www.w3.org/2000/svg">
<rect x="0.5" y="0.5" width="47" height="47" rx="23.5" fill="#173432"/>
<rect x="0.5" y="0.5" width="47" height="47" rx="23.5" stroke="#455D5B"/>
<path d="M24 19.5C23.11 19.5 22.24 19.7639 21.4999 20.2584C20.7599 20.7529 20.1831 21.4557 19.8425 22.2779C19.5019 23.1002 19.4128 24.005 19.5865 24.8779C19.7601 25.7508 20.1887 26.5526 20.818 27.182C21.4474 27.8113 22.2492 28.2399 23.1221 28.4135C23.995 28.5872 24.8998 28.4981 25.7221 28.1575C26.5443 27.8169 27.2471 27.2401 27.7416 26.5001C28.2361 25.76 28.5 24.89 28.5 24C28.4988 22.8069 28.0243 21.663 27.1806 20.8194C26.337 19.9757 25.1931 19.5012 24 19.5ZM24 27C23.4067 27 22.8266 26.8241 22.3333 26.4944C21.8399 26.1648 21.4554 25.6962 21.2284 25.1481C21.0013 24.5999 20.9419 23.9967 21.0576 23.4147C21.1734 22.8328 21.4591 22.2982 21.8787 21.8787C22.2982 21.4591 22.8328 21.1734 23.4147 21.0576C23.9967 20.9419 24.5999 21.0013 25.1481 21.2284C25.6962 21.4554 26.1648 21.8399 26.4944 22.3333C26.8241 22.8266 27 23.4067 27 24C27 24.7956 26.6839 25.5587 26.1213 26.1213C25.5587 26.6839 24.7956 27 24 27ZM28.5 14.25H19.5C18.1081 14.2515 16.7736 14.8051 15.7893 15.7893C14.8051 16.7736 14.2515 18.1081 14.25 19.5V28.5C14.2515 29.8919 14.8051 31.2264 15.7893 32.2107C16.7736 33.1949 18.1081 33.7485 19.5 33.75H28.5C29.8919 33.7485 31.2264 33.1949 32.2107 32.2107C33.1949 31.2264 33.7485 29.8919 33.75 28.5V19.5C33.7485 18.1081 33.1949 16.7736 32.2107 15.7893C31.2264 14.8051 29.8919 14.2515 28.5 14.25ZM32.25 28.5C32.25 29.4946 31.8549 30.4484 31.1516 31.1516C30.4484 31.8549 29.4946 32.25 28.5 32.25H19.5C18.5054 32.25 17.5516 31.8549 16.8483 31.1516C16.1451 30.4484 15.75 29.4946 15.75 28.5V19.5C15.75 18.5054 16.1451 17.5516 16.8483 16.8483C17.5516 16.1451 18.5054 15.75 19.5 15.75H28.5C29.4946 15.75 30.4484 16.1451 31.1516 16.8483C31.8549 17.5516 32.25 18.5054 32.25 19.5V28.5ZM30 19.125C30 19.3475 29.934 19.565 29.8104 19.75C29.6868 19.935 29.5111 20.0792 29.3055 20.1644C29.1 20.2495 28.8738 20.2718 28.6555 20.2284C28.4373 20.185 28.2368 20.0778 28.0795 19.9205C27.9222 19.7632 27.815 19.5627 27.7716 19.3445C27.7282 19.1262 27.7505 18.9 27.8356 18.6945C27.9208 18.4889 28.065 18.3132 28.25 18.1896C28.435 18.066 28.6525 18 28.875 18C29.1734 18 29.4595 18.1185 29.6705 18.3295C29.8815 18.5405 30 18.8266 30 19.125Z" fill="white"/>
</svg>
