<svg width="70" height="70" viewBox="0 0 70 70" fill="none" xmlns="http://www.w3.org/2000/svg">
<g style="mix-blend-mode:overlay" clip-path="url(#clip0_157101_5083)">
<path fill-rule="evenodd" clip-rule="evenodd" d="M44.8952 22.4254C42.4082 20.4687 39.3968 19.2934 36.2418 19.0481L37.4819 3.09626C43.7918 3.58678 49.8146 5.93741 54.7887 9.85089C59.7627 13.7644 63.4645 19.0649 65.4261 25.0822C67.3875 31.0996 67.5207 37.5636 65.8086 43.6566C64.0965 49.7496 60.6161 55.1981 55.8074 59.313C50.9988 63.4281 45.0778 66.0247 38.7934 66.7746C32.509 67.5245 26.1433 66.394 20.5013 63.5261C14.8595 60.6582 10.1947 56.1817 7.09689 50.6626C3.99911 45.1435 2.6075 38.8298 3.09801 32.5199L19.0499 33.76C18.8046 36.9149 19.5005 40.0718 21.0493 42.8313C22.5982 45.5909 24.9306 47.8291 27.7516 49.2631C30.5725 50.6971 33.7554 51.2622 36.8976 50.8872C40.0398 50.5123 43.0002 49.214 45.4046 47.1566C47.8089 45.099 49.5491 42.3748 50.4051 39.3283C51.2612 36.2818 51.1947 33.0498 50.2139 30.0412C49.2331 27.0325 47.3822 24.3822 44.8952 22.4254Z" fill="#173432"/>
<path fill-rule="evenodd" clip-rule="evenodd" d="M21.53 1.85621C21.3671 3.95104 20.7933 5.99329 19.8412 7.86633C18.8891 9.73939 17.5774 11.4066 15.9809 12.7727C14.3845 14.1388 12.5347 15.1771 10.537 15.8283C8.53928 16.4795 6.43289 16.7309 4.33807 16.568L3.09801 32.5199C7.28767 32.8456 11.5005 32.3429 15.4958 31.0405C19.4912 29.7381 23.191 27.6614 26.3837 24.9292C29.5766 22.197 32.2 18.8627 34.1043 15.1165C36.0085 11.3704 37.1562 7.28592 37.4819 3.09626L21.53 1.85621Z" fill="#173432"/>
</g>
<defs>
<clipPath id="clip0_157101_5083">
<rect width="64" height="64" fill="white" transform="translate(5.57812 0.61615) rotate(4.44508)"/>
</clipPath>
</defs>
</svg>
