<svg width="141" height="28" viewBox="0 0 141 28" fill="none" xmlns="http://www.w3.org/2000/svg">
<g clip-path="url(#clip0_157101_4969)">
<path fill-rule="evenodd" clip-rule="evenodd" d="M17.8384 8.17971C16.6905 7.41055 15.3409 7 13.9604 7V0C16.7215 0 19.4206 0.821086 21.7164 2.35943C24.0122 3.89776 25.8015 6.08427 26.8581 8.64241C27.9147 11.2006 28.1912 14.0155 27.6525 16.7313C27.1139 19.447 25.7843 21.9416 23.8319 23.8995C21.8795 25.8574 19.392 27.1908 16.6839 27.731C13.9759 28.2712 11.1689 27.9939 8.61796 26.9343C6.06705 25.8747 3.88673 24.0803 2.35275 21.778C0.818763 19.4757 0 16.7689 0 14H6.9802C6.9802 15.3845 7.38959 16.7378 8.15657 17.889C8.92355 19.0401 10.0137 19.9373 11.2892 20.4672C12.5646 20.997 13.9681 21.1356 15.3222 20.8655C16.6762 20.5954 17.9199 19.9287 18.8962 18.9498C19.8723 17.9708 20.5371 16.7235 20.8064 15.3656C21.0758 14.0078 20.9376 12.6003 20.4093 11.3212C19.8809 10.0421 18.9863 8.94887 17.8384 8.17971Z" fill="#0C1312"/>
<path fill-rule="evenodd" clip-rule="evenodd" d="M6.98019 3.69945e-06C6.98019 0.919257 6.79965 1.82951 6.44886 2.67879C6.09807 3.52807 5.58392 4.29974 4.93574 4.94975C4.28758 5.59976 3.51809 6.11538 2.67121 6.46716C1.82433 6.81894 0.916649 7 3.05111e-07 7L0 14C1.8333 14 3.64866 13.6379 5.34242 12.9343C7.03617 12.2308 8.57517 11.1995 9.87146 9.89947C11.1678 8.5995 12.1961 7.05614 12.8977 5.35757C13.5993 3.65901 13.9604 1.8385 13.9604 0L6.98019 3.69945e-06Z" fill="#0C1312"/>
<path d="M87.6837 10.1168H84.2969V20.9054H87.6837V10.1168Z" fill="#0C1312"/>
<path d="M84.6736 8.09664C85.0275 8.45182 85.4701 8.62941 86.0012 8.62941C86.5324 8.62941 86.968 8.45182 87.3072 8.09664C87.6472 7.72669 87.8168 7.28268 87.8168 6.76472C87.8168 6.23196 87.6472 5.78797 87.3072 5.4328C86.968 5.07761 86.5324 4.90002 86.0012 4.90002C85.4701 4.90002 85.0275 5.07761 84.6736 5.4328C84.3337 5.78797 84.1641 6.23196 84.1641 6.76472C84.1641 7.28268 84.3337 7.72669 84.6736 8.09664Z" fill="#0C1312"/>
<path d="M35.707 20.9054V5.233H39.1824V17.842H46.111V20.9054H35.707Z" fill="#0C1312"/>
<path fill-rule="evenodd" clip-rule="evenodd" d="M52.3725 21.1495C51.2657 21.1495 50.2623 20.9054 49.362 20.417C48.4766 19.9138 47.7756 19.2331 47.2591 18.3747C46.7426 17.5163 46.4844 16.5544 46.4844 15.4888C46.4844 14.4233 46.7426 13.4688 47.2591 12.6252C47.7756 11.7816 48.4766 11.1157 49.362 10.6273C50.2475 10.1241 51.251 9.87253 52.3725 9.87253C53.4941 9.87253 54.4976 10.1168 55.383 10.6051C56.2684 11.0935 56.9695 11.7669 57.4859 12.6252C58.0025 13.4688 58.2607 14.4233 58.2607 15.4888C58.2607 16.5544 58.0025 17.5163 57.4859 18.3747C56.9695 19.2331 56.2684 19.9138 55.383 20.417C54.4976 20.9054 53.4941 21.1495 52.3725 21.1495ZM52.3725 18.0639C52.8595 18.0639 53.2875 17.9603 53.6565 17.7531C54.0254 17.5312 54.3058 17.2278 54.4976 16.843C54.7042 16.4434 54.8075 15.992 54.8075 15.4888C54.8075 14.9857 54.7042 14.5491 54.4976 14.1791C54.291 13.7943 54.0032 13.4984 53.6343 13.2912C53.2801 13.0691 52.8595 12.9582 52.3725 12.9582C51.9003 12.9582 51.4798 13.0691 51.1108 13.2912C50.7419 13.4984 50.4541 13.7943 50.2475 14.1791C50.0409 14.5639 49.9376 15.0079 49.9376 15.511C49.9376 15.9994 50.0409 16.4434 50.2475 16.843C50.4541 17.2278 50.7419 17.5312 51.1108 17.7531C51.4798 17.9603 51.9003 18.0639 52.3725 18.0639Z" fill="#0C1312"/>
<path fill-rule="evenodd" clip-rule="evenodd" d="M60.9401 25.1232C61.8403 25.5375 62.8807 25.7447 64.0613 25.7447C65.2124 25.7447 66.2381 25.5153 67.1382 25.0566C68.0385 24.5978 68.7467 23.9615 69.2633 23.1475C69.7797 22.3336 70.0383 21.3716 70.0383 20.2616V10.1168H66.7176V10.8417C66.4706 10.6332 66.1902 10.4582 65.8765 10.3166C65.3009 10.0354 64.6442 9.89478 63.9064 9.89478C62.9176 9.89478 62.0395 10.1316 61.2722 10.6051C60.5047 11.0639 59.8997 11.7003 59.457 12.5142C59.0142 13.3134 58.793 14.2162 58.793 15.2225C58.793 16.2141 59.0142 17.1168 59.457 17.9308C59.8997 18.7447 60.5047 19.3885 61.2722 19.8621C62.0395 20.3356 62.9176 20.5724 63.9064 20.5724C64.6295 20.5724 65.2862 20.4319 65.8765 20.1507C66.1624 20.0145 66.4207 19.854 66.6512 19.6691V20.3505C66.6512 21.1052 66.4077 21.6898 65.9207 22.1042C65.4485 22.5186 64.7918 22.7257 63.9506 22.7257C63.2718 22.7257 62.6889 22.6073 62.2019 22.3705C61.7297 22.1338 61.3017 21.786 60.918 21.3272L58.8372 23.4139C59.3537 24.1538 60.0547 24.7236 60.9401 25.1232ZM65.7658 17.2426C65.4263 17.4498 65.0206 17.5534 64.5483 17.5534C64.0761 17.5534 63.6628 17.4498 63.3087 17.2426C62.9692 17.0354 62.7036 16.7542 62.5118 16.399C62.3199 16.0291 62.224 15.6369 62.224 15.2225C62.224 14.7785 62.3199 14.379 62.5118 14.0238C62.7036 13.6686 62.9766 13.3874 63.3308 13.1802C63.685 12.973 64.0908 12.8694 64.5483 12.8694C65.0206 12.8694 65.4263 12.973 65.7658 13.1802C66.1199 13.3874 66.3855 13.6686 66.5627 14.0238C66.7545 14.379 66.8504 14.7785 66.8504 15.2225C66.8504 15.6665 66.7545 16.066 66.5627 16.4212C66.3855 16.7616 66.1199 17.0354 65.7658 17.2426Z" fill="#0C1312"/>
<path fill-rule="evenodd" clip-rule="evenodd" d="M77.1658 21.1495C76.0588 21.1495 75.055 20.9054 74.1553 20.417C73.2695 19.9138 72.5687 19.2331 72.0521 18.3747C71.5356 17.5163 71.2773 16.5544 71.2773 15.4888C71.2773 14.4233 71.5356 13.4688 72.0521 12.6252C72.5687 11.7816 73.2695 11.1157 74.1553 10.6273C75.0404 10.1241 76.0441 9.87253 77.1658 9.87253C78.2869 9.87253 79.2906 10.1168 80.1757 10.6051C81.0615 11.0935 81.7623 11.7669 82.2788 12.6252C82.7954 13.4688 83.0536 14.4233 83.0536 15.4888C83.0536 16.5544 82.7954 17.5163 82.2788 18.3747C81.7623 19.2331 81.0615 19.9138 80.1757 20.417C79.2906 20.9054 78.2869 21.1495 77.1658 21.1495ZM77.1658 18.0639C77.6524 18.0639 78.0802 17.9603 78.4495 17.7531C78.8181 17.5312 79.0987 17.2278 79.2906 16.843C79.4972 16.4434 79.6005 15.992 79.6005 15.4888C79.6005 14.9857 79.4972 14.5491 79.2906 14.1791C79.084 13.7943 78.7964 13.4984 78.4272 13.2912C78.0733 13.0691 77.6524 12.9582 77.1658 12.9582C76.6933 12.9582 76.2724 13.0691 75.9038 13.2912C75.5346 13.4984 75.247 13.7943 75.0404 14.1791C74.8338 14.5639 74.7304 15.0079 74.7304 15.511C74.7304 15.9994 74.8338 16.4434 75.0404 16.843C75.247 17.2278 75.5346 17.5312 75.9038 17.7531C76.2724 17.9603 76.6933 18.0639 77.1658 18.0639Z" fill="#0C1312"/>
<path fill-rule="evenodd" clip-rule="evenodd" d="M95.8266 21.1274C95.1042 21.1274 94.4397 20.9868 93.8345 20.7056C93.5162 20.5576 93.2286 20.381 92.9717 20.1756V25.4562H89.6289V10.1168H93.0157V10.8614C93.2614 10.6598 93.5343 10.4856 93.8345 10.3388C94.4397 10.0427 95.1042 9.89474 95.8266 9.89474C96.845 9.89474 97.7455 10.139 98.5273 10.6274C99.3244 11.1157 99.9442 11.7817 100.387 12.6252C100.845 13.4688 101.073 14.4307 101.073 15.5111C101.073 16.5914 100.845 17.5534 100.387 18.3969C99.9442 19.2405 99.3244 19.9064 98.5273 20.3948C97.7455 20.8832 96.845 21.1274 95.8266 21.1274ZM95.2075 18.064C95.694 18.064 96.1149 17.9529 96.4688 17.731C96.8381 17.509 97.1256 17.2055 97.3323 16.8208C97.5389 16.436 97.6422 15.9994 97.6422 15.5111C97.6422 15.0079 97.5389 14.564 97.3323 14.1792C97.1256 13.7944 96.8381 13.4984 96.4688 13.2912C96.1149 13.0692 95.7017 12.9582 95.2291 12.9582C94.7573 12.9582 94.3364 13.0692 93.9678 13.2912C93.6132 13.4984 93.3333 13.7944 93.1267 14.1792C92.9201 14.564 92.8168 15.0079 92.8168 15.5111C92.8168 15.9994 92.9124 16.436 93.1043 16.8208C93.311 17.2055 93.5985 17.509 93.9678 17.731C94.3364 17.9529 94.7496 18.064 95.2075 18.064Z" fill="#0C1312"/>
<path d="M104.384 20.9275C105.004 21.0904 105.631 21.1717 106.266 21.1717C107.609 21.1717 108.671 20.861 109.453 20.2394C110.25 19.6178 110.648 18.7817 110.648 17.7309C110.648 17.0502 110.524 16.5026 110.272 16.0882C110.022 15.6591 109.697 15.3186 109.299 15.0671C108.9 14.8155 108.479 14.6156 108.036 14.4677C107.594 14.3197 107.173 14.1939 106.775 14.0903C106.377 13.9867 106.052 13.8683 105.801 13.7351C105.55 13.6019 105.425 13.4243 105.425 13.2023C105.425 12.9951 105.521 12.8397 105.712 12.7361C105.904 12.6178 106.192 12.5586 106.576 12.5586C106.974 12.5586 107.38 12.64 107.793 12.8028C108.221 12.9655 108.605 13.2468 108.944 13.6463L110.87 11.6929C110.383 11.0713 109.749 10.6051 108.966 10.2943C108.199 9.96876 107.358 9.80594 106.443 9.80594C105.572 9.80594 104.812 9.95392 104.163 10.2499C103.513 10.5459 103.011 10.9529 102.658 11.4708C102.304 11.974 102.126 12.5734 102.126 13.269C102.126 13.9201 102.252 14.4603 102.503 14.8895C102.753 15.3038 103.078 15.6294 103.476 15.8662C103.875 16.103 104.296 16.288 104.738 16.4211C105.181 16.5544 105.602 16.6801 106 16.7986C106.398 16.9022 106.724 17.028 106.974 17.176C107.24 17.3092 107.373 17.5089 107.373 17.7753C107.373 17.9825 107.262 18.1452 107.04 18.2637C106.834 18.3821 106.532 18.4413 106.133 18.4413C105.557 18.4413 105.026 18.3377 104.539 18.1305C104.052 17.9085 103.631 17.6051 103.277 17.2203L101.352 19.1738C101.721 19.5734 102.163 19.9286 102.68 20.2394C103.211 20.5353 103.779 20.7647 104.384 20.9275Z" fill="#0C1312"/>
<path d="M116.824 21.1496C115.836 21.1496 114.958 20.9498 114.19 20.5502C113.437 20.1358 112.847 19.5734 112.42 18.8631C111.991 18.138 111.777 17.3092 111.777 16.3768V10.1168H115.164V16.3324C115.164 16.7024 115.223 17.0206 115.341 17.287C115.474 17.5534 115.666 17.7606 115.917 17.9086C116.168 18.0565 116.47 18.1305 116.824 18.1305C117.326 18.1305 117.724 17.9751 118.02 17.6643C118.315 17.3388 118.462 16.8948 118.462 16.3324V10.1168H121.849V16.3546C121.849 17.3018 121.635 18.138 121.207 18.8631C120.779 19.5734 120.189 20.1358 119.436 20.5502C118.684 20.9498 117.813 21.1496 116.824 21.1496Z" fill="#0C1312"/>
<path d="M126.922 10.1168H123.535V20.9054H126.922V14.6009C126.922 14.231 126.996 13.9202 127.143 13.6686C127.306 13.417 127.52 13.2246 127.785 13.0914C128.051 12.9434 128.354 12.8694 128.693 12.8694C129.18 12.8694 129.586 13.0248 129.91 13.3356C130.25 13.6316 130.42 14.0534 130.42 14.6009V20.9054H133.807V14.6009C133.807 14.231 133.881 13.9202 134.028 13.6686C134.19 13.417 134.404 13.2246 134.67 13.0914C134.935 12.9434 135.238 12.8694 135.577 12.8694C136.065 12.8694 136.47 13.0248 136.795 13.3356C137.134 13.6316 137.304 14.0534 137.304 14.6009V20.9054H140.691V14.2235C140.691 13.3208 140.499 12.5512 140.115 11.9149C139.746 11.2637 139.237 10.7679 138.588 10.4276C137.953 10.0723 137.223 9.89474 136.396 9.89474C135.555 9.89474 134.795 10.0798 134.116 10.4498C133.675 10.6855 133.29 10.9897 132.96 11.3624C132.652 10.9725 132.278 10.6535 131.836 10.4053C131.246 10.065 130.575 9.89474 129.822 9.89474C129.025 9.89474 128.31 10.065 127.675 10.4053C127.399 10.5469 127.148 10.7165 126.922 10.9142V10.1168Z" fill="#0C1312"/>
</g>
<defs>
<clipPath id="clip0_157101_4969">
<rect width="141" height="28" fill="white"/>
</clipPath>
</defs>
</svg>
