<svg width="115" height="28" viewBox="0 0 115 28" fill="none" xmlns="http://www.w3.org/2000/svg">
<g clip-path="url(#clip0_157101_4993)">
<path d="M33.7344 19.7723H41.9158V17.3138H36.6422V8.05331H33.7344V19.7723Z" fill="#0C1312"/>
<path d="M46.7623 18.1334C45.5959 18.1334 44.9881 17.1172 44.9881 15.5929C44.9881 14.0686 45.5959 13.036 46.7623 13.036C47.9288 13.036 48.5531 14.0686 48.5531 15.5929C48.5531 17.1172 47.9288 18.1334 46.7623 18.1334ZM46.7788 20.0347C49.4895 20.0347 51.2638 18.117 51.2638 15.5929C51.2638 13.0688 49.4895 11.1512 46.7788 11.1512C44.0845 11.1512 42.2773 13.0688 42.2773 15.5929C42.2773 18.117 44.0845 20.0347 46.7788 20.0347Z" fill="#0C1312"/>
<path d="M55.9558 22.6735C57.2044 22.6735 58.3051 22.3949 59.0444 21.7393C59.718 21.1328 60.1615 20.215 60.1615 18.9529V11.3806H57.5987V12.2821H57.5658C57.073 11.5773 56.3173 11.1348 55.2001 11.1348C53.1137 11.1348 51.668 12.8721 51.668 15.3307C51.668 17.9039 53.4258 19.3135 55.3151 19.3135C56.3337 19.3135 56.9744 18.9037 57.4673 18.3465H57.533V19.1824C57.533 20.1986 57.0565 20.7886 55.923 20.7886C55.0358 20.7886 54.5923 20.4116 54.4444 19.9691H51.8487C52.1115 21.7229 53.6394 22.6735 55.9558 22.6735ZM55.9394 17.3303C54.9373 17.3303 54.2801 16.5108 54.2801 15.2487C54.2801 13.9703 54.9373 13.1508 55.9394 13.1508C57.0565 13.1508 57.648 14.1014 57.648 15.2323C57.648 16.4124 57.1058 17.3303 55.9394 17.3303Z" fill="#0C1312"/>
<path d="M65.4303 18.1334C64.2639 18.1334 63.656 17.1172 63.656 15.5929C63.656 14.0686 64.2639 13.036 65.4303 13.036C66.5967 13.036 67.221 14.0686 67.221 15.5929C67.221 17.1172 66.5967 18.1334 65.4303 18.1334ZM65.4467 20.0346C68.1575 20.0346 69.9314 18.117 69.9314 15.5929C69.9314 13.0688 68.1575 11.1511 65.4467 11.1511C62.7525 11.1511 60.9453 13.0688 60.9453 15.5929C60.9453 18.117 62.7525 20.0346 65.4467 20.0346Z" fill="#0C1312"/>
<path d="M70.7148 19.7723H73.3927V11.3805H70.7148V19.7723ZM70.7148 10.2168H73.3927V8.05331H70.7148V10.2168Z" fill="#0C1312"/>
<path d="M74.5508 22.5424H77.2286V18.9037H77.2615C77.7872 19.6085 78.5593 20.0347 79.6436 20.0347C81.8451 20.0347 83.3072 18.2973 83.3072 15.5765C83.3072 13.0524 81.9436 11.1348 79.7093 11.1348C78.5593 11.1348 77.7379 11.6429 77.1629 12.3968H77.1136V11.3806H74.5508V22.5424ZM78.9536 17.9695C77.8036 17.9695 77.1465 17.0353 77.1465 15.6749C77.1465 14.3145 77.7379 13.2819 78.9044 13.2819C80.0544 13.2819 80.5965 14.2325 80.5965 15.6749C80.5965 17.1008 79.9722 17.9695 78.9536 17.9695Z" fill="#0C1312"/>
<path d="M87.6688 20.0347C89.8703 20.0347 91.4967 19.084 91.4967 17.2483C91.4967 15.1012 89.7553 14.7242 88.2767 14.4784C87.2088 14.2817 86.256 14.1997 86.256 13.6097C86.256 13.0852 86.7653 12.8394 87.4224 12.8394C88.1617 12.8394 88.671 13.0688 88.7695 13.8228H91.2338C91.1024 12.1674 89.821 11.1348 87.4388 11.1348C85.451 11.1348 83.8081 12.0526 83.8081 13.8228C83.8081 15.7896 85.3688 16.183 86.831 16.4288C87.9481 16.6255 88.9667 16.7074 88.9667 17.4614C88.9667 18.0023 88.4574 18.2973 87.6524 18.2973C86.7653 18.2973 86.2067 17.8875 86.1081 17.0516H83.5781C83.6603 18.9037 85.2046 20.0347 87.6688 20.0347Z" fill="#0C1312"/>
<path d="M95.1368 20.0182C96.3033 20.0182 97.0425 19.5593 97.6504 18.7398H97.6997V19.7724H100.263V11.3806H97.5847V16.0682C97.5847 17.068 97.0261 17.7564 96.1061 17.7564C95.2518 17.7564 94.8411 17.2483 94.8411 16.3304V11.3806H92.1797V16.8877C92.1797 18.7562 93.1983 20.0182 95.1368 20.0182Z" fill="#0C1312"/>
<path d="M101.426 19.7724H104.104V15.0684C104.104 14.0686 104.596 13.3638 105.434 13.3638C106.239 13.3638 106.617 13.8883 106.617 14.7898V19.7724H109.295V15.0684C109.295 14.0686 109.771 13.3638 110.626 13.3638C111.431 13.3638 111.809 13.8883 111.809 14.7898V19.7724H114.486V14.3145C114.486 12.4296 113.534 11.1348 111.628 11.1348C110.544 11.1348 109.64 11.5937 108.983 12.6099H108.95C108.523 11.7084 107.685 11.1348 106.584 11.1348C105.369 11.1348 104.564 11.7084 104.038 12.5771H103.989V11.3806H101.426V19.7724Z" fill="#0C1312"/>
<path d="M17.3952 1.35005L14.7029 0.630341L12.4342 9.07785L10.3859 1.45138L7.69356 2.17109L9.90662 10.4109L4.3944 4.91159L2.42352 6.87787L8.46974 12.91L0.94014 10.8972L0.21875 13.5831L8.44578 15.7824C8.35159 15.3771 8.30175 14.9548 8.30175 14.5208C8.30175 11.4493 10.7975 8.95936 13.8762 8.95936C16.955 8.95936 19.4507 11.4493 19.4507 14.5208C19.4507 14.952 19.4015 15.3717 19.3085 15.7746L26.7853 17.7734L27.5067 15.0874L19.2469 12.8794L26.7771 10.8664L26.0556 8.18042L17.7962 10.3883L23.3084 4.88902L21.3376 2.92274L15.3752 8.8712L17.3952 1.35005Z" fill="#0C1312"/>
<path d="M19.3008 15.8059C19.07 16.7795 18.5827 17.6541 17.9141 18.3549L23.3307 23.7589L25.3016 21.7926L19.3008 15.8059Z" fill="#0C1312"/>
<path d="M17.8581 18.4115C17.1814 19.101 16.3262 19.6156 15.3672 19.8808L17.3382 27.2195L20.0304 26.4998L17.8581 18.4115Z" fill="#0C1312"/>
<path d="M15.2656 19.9076C14.8207 20.0217 14.3543 20.0824 13.8737 20.0824C13.3588 20.0824 12.8602 20.0127 12.3869 19.8823L10.4141 27.2277L13.1063 27.9474L15.2656 19.9076Z" fill="#0C1312"/>
<path d="M12.2952 19.8552C11.3508 19.5769 10.5108 19.0557 9.84794 18.3642L4.41797 23.7815L6.38884 25.7478L12.2952 19.8552Z" fill="#0C1312"/>
<path d="M9.80248 18.3163C9.15095 17.6204 8.67637 16.7574 8.45048 15.7989L0.949219 17.8041L1.6706 20.4901L9.80248 18.3163Z" fill="#0C1312"/>
</g>
<defs>
<clipPath id="clip0_157101_4993">
<rect width="115" height="28" fill="white"/>
</clipPath>
</defs>
</svg>
