<svg width="116" height="28" viewBox="0 0 116 28" fill="none" xmlns="http://www.w3.org/2000/svg">
<g clip-path="url(#clip0_157101_5009)">
<path d="M35.3867 19.2162H43.5422V16.7577H38.2854V7.49719H35.3867V19.2162Z" fill="#0C1312"/>
<path d="M48.3731 17.5772C47.2104 17.5772 46.6045 16.561 46.6045 15.0367C46.6045 13.5124 47.2104 12.4798 48.3731 12.4798C49.5359 12.4798 50.1582 13.5124 50.1582 15.0367C50.1582 16.561 49.5359 17.5772 48.3731 17.5772ZM48.3895 19.4785C51.0916 19.4785 52.8603 17.5608 52.8603 15.0367C52.8603 12.5126 51.0916 10.5949 48.3895 10.5949C45.7038 10.5949 43.9023 12.5126 43.9023 15.0367C43.9023 17.5608 45.7038 19.4785 48.3895 19.4785Z" fill="#0C1312"/>
<path d="M57.536 22.1173C58.7806 22.1173 59.8778 21.8386 60.6148 21.183C61.2862 20.5766 61.7284 19.6587 61.7284 18.3967V10.8244H59.1736V11.7259H59.1409C58.6496 11.0211 57.8963 10.5786 56.7827 10.5786C54.7029 10.5786 53.2617 12.3159 53.2617 14.7745C53.2617 17.3477 55.014 18.7573 56.8973 18.7573C57.9126 18.7573 58.5513 18.3475 59.0426 17.7903H59.1081V18.6262C59.1081 19.6424 58.6332 20.2324 57.5032 20.2324C56.6189 20.2324 56.1767 19.8554 56.0293 19.4129H53.4419C53.7039 21.1667 55.2269 22.1173 57.536 22.1173ZM57.5196 16.7741C56.5206 16.7741 55.8656 15.9546 55.8656 14.6925C55.8656 13.4141 56.5206 12.5946 57.5196 12.5946C58.6332 12.5946 59.2228 13.5452 59.2228 14.6761C59.2228 15.8562 58.6823 16.7741 57.5196 16.7741Z" fill="#0C1312"/>
<path d="M66.9825 17.5772C65.8198 17.5772 65.2138 16.561 65.2138 15.0367C65.2138 13.5124 65.8198 12.4798 66.9825 12.4798C68.1452 12.4798 68.7675 13.5124 68.7675 15.0367C68.7675 16.561 68.1452 17.5772 66.9825 17.5772ZM66.9989 19.4785C69.701 19.4785 71.4696 17.5608 71.4696 15.0367C71.4696 12.5126 69.701 10.5949 66.9989 10.5949C64.3131 10.5949 62.5117 12.5126 62.5117 15.0367C62.5117 17.5608 64.3131 19.4785 66.9989 19.4785Z" fill="#0C1312"/>
<path d="M72.25 19.2162H74.9194V10.8244H72.25V19.2162ZM72.25 9.6607H74.9194V7.49719H72.25V9.6607Z" fill="#0C1312"/>
<path d="M76.0781 21.9862H78.7475V18.3475H78.7802C79.3043 19.0523 80.074 19.4785 81.1548 19.4785C83.3493 19.4785 84.8068 17.7411 84.8068 15.0203C84.8068 12.4962 83.4475 10.5786 81.2203 10.5786C80.074 10.5786 79.2552 11.0866 78.682 11.8406H78.6329V10.8244H76.0781V21.9862ZM80.467 17.4133C79.3207 17.4133 78.6656 16.479 78.6656 15.1186C78.6656 13.7583 79.2552 12.7257 80.4179 12.7257C81.5642 12.7257 82.1047 13.6763 82.1047 15.1186C82.1047 16.5446 81.4824 17.4133 80.467 17.4133Z" fill="#0C1312"/>
<path d="M89.152 19.4785C91.3464 19.4785 92.9677 18.5279 92.9677 16.6921C92.9677 14.545 91.2318 14.168 89.7579 13.9222C88.6934 13.7255 87.7436 13.6436 87.7436 13.0535C87.7436 12.529 88.2513 12.2832 88.9063 12.2832C89.6433 12.2832 90.1509 12.5126 90.2492 13.2666H92.7057C92.5746 11.6112 91.2973 10.5786 88.9227 10.5786C86.9411 10.5786 85.3035 11.4964 85.3035 13.2666C85.3035 15.2334 86.8593 15.6268 88.3168 15.8726C89.4304 16.0693 90.4457 16.1513 90.4457 16.9052C90.4457 17.4461 89.938 17.7411 89.1356 17.7411C88.2513 17.7411 87.6945 17.3314 87.5962 16.4955H85.0742C85.1561 18.3476 86.6955 19.4785 89.152 19.4785Z" fill="#0C1312"/>
<path d="M96.5923 19.4621C97.755 19.4621 98.492 19.0032 99.0979 18.1837H99.147V19.2162H101.702V10.8244H99.0324V15.512C99.0324 16.5118 98.4756 17.2002 97.5585 17.2002C96.7069 17.2002 96.2975 16.6921 96.2975 15.7743V10.8244H93.6445V16.3316C93.6445 18.2 94.6599 19.4621 96.5923 19.4621Z" fill="#0C1312"/>
<path d="M102.863 19.2162H105.533V14.5122C105.533 13.5124 106.024 12.8077 106.859 12.8077C107.662 12.8077 108.038 13.3321 108.038 14.2336V19.2162H110.708V14.5122C110.708 13.5124 111.183 12.8077 112.034 12.8077C112.837 12.8077 113.213 13.3321 113.213 14.2336V19.2162H115.883V13.7583C115.883 11.8734 114.933 10.5786 113.033 10.5786C111.952 10.5786 111.052 11.0375 110.396 12.0537H110.364C109.938 11.1522 109.103 10.5786 108.005 10.5786C106.794 10.5786 105.991 11.1522 105.467 12.0209H105.418V10.8244H102.863V19.2162Z" fill="#0C1312"/>
<path fill-rule="evenodd" clip-rule="evenodd" d="M14.1119 27.4114C21.649 27.4114 27.759 21.2962 27.759 13.7528C27.759 6.20944 21.649 0.0942993 14.1119 0.0942993C6.57483 0.0942993 0.464844 6.20944 0.464844 13.7528C0.464844 21.2962 6.57483 27.4114 14.1119 27.4114ZM18.3693 6.45702C18.5766 5.72028 17.8622 5.28463 17.2098 5.74982L8.1025 12.2433C7.39497 12.7478 7.50626 13.7528 8.26968 13.7528H10.6679V13.7342H15.3419L11.5334 15.0791L9.85451 21.0487C9.64728 21.7854 10.3616 22.221 11.014 21.7558L20.1213 15.2624C20.8289 14.7579 20.7175 13.7528 19.9542 13.7528H16.3173L18.3693 6.45702Z" fill="#0C1312"/>
</g>
<defs>
<clipPath id="clip0_157101_5009">
<rect width="116" height="28" fill="white"/>
</clipPath>
</defs>
</svg>
