<svg width="116" height="28" viewBox="0 0 116 28" fill="none" xmlns="http://www.w3.org/2000/svg">
<g clip-path="url(#clip0_157101_4982)">
<path d="M34.9883 20.0256H43.1438V17.5671H37.8869V8.30661H34.9883V20.0256Z" fill="#0C1312"/>
<path d="M47.9786 18.3866C46.8159 18.3866 46.2099 17.3704 46.2099 15.8461C46.2099 14.3218 46.8159 13.2892 47.9786 13.2892C49.1413 13.2892 49.7636 14.3218 49.7636 15.8461C49.7636 17.3704 49.1413 18.3866 47.9786 18.3866ZM47.995 20.2879C50.6971 20.2879 52.4657 18.3702 52.4657 15.8461C52.4657 13.322 50.6971 11.4044 47.995 11.4044C45.3092 11.4044 43.5078 13.322 43.5078 15.8461C43.5078 18.3702 45.3092 20.2879 47.995 20.2879Z" fill="#0C1312"/>
<path d="M57.1414 22.9267C58.3861 22.9267 59.4833 22.6481 60.2202 21.9925C60.8917 21.386 61.3338 20.4682 61.3338 19.2061V11.6338H58.7791V12.5353H58.7463C58.255 11.8305 57.5017 11.388 56.3881 11.388C54.3083 11.388 52.8672 13.1253 52.8672 15.5839C52.8672 18.1571 54.6195 19.5667 56.5028 19.5667C57.5181 19.5667 58.1568 19.1569 58.6481 18.5997H58.7136V19.4356C58.7136 20.4518 58.2387 21.0418 57.1087 21.0418C56.2244 21.0418 55.7822 20.6648 55.6348 20.2223H53.0473C53.3094 21.9761 54.8324 22.9267 57.1414 22.9267ZM57.1251 17.5835C56.1261 17.5835 55.471 16.764 55.471 15.5019C55.471 14.2235 56.1261 13.404 57.1251 13.404C58.2387 13.404 58.8282 14.3546 58.8282 15.4855C58.8282 16.6656 58.2878 17.5835 57.1251 17.5835Z" fill="#0C1312"/>
<path d="M66.588 18.3866C65.4252 18.3866 64.8193 17.3704 64.8193 15.8461C64.8193 14.3218 65.4252 13.2892 66.588 13.2892C67.7507 13.2892 68.3727 14.3218 68.3727 15.8461C68.3727 17.3704 67.7507 18.3866 66.588 18.3866ZM66.6043 20.2879C69.3062 20.2879 71.0748 18.3702 71.0748 15.8461C71.0748 13.322 69.3062 11.4044 66.6043 11.4044C63.9186 11.4044 62.1172 13.322 62.1172 15.8461C62.1172 18.3702 63.9186 20.2879 66.6043 20.2879Z" fill="#0C1312"/>
<path d="M71.8555 20.0256H74.5248V11.6338H71.8555V20.0256ZM71.8555 10.4701H74.5248V8.30661H71.8555V10.4701Z" fill="#0C1312"/>
<path d="M75.6797 22.7956H78.349V19.1569H78.3818C78.9059 19.8617 79.6755 20.2879 80.7564 20.2879C82.9508 20.2879 84.4083 18.5505 84.4083 15.8297C84.4083 13.3056 83.0491 11.388 80.8219 11.388C79.6755 11.388 78.8567 11.8961 78.2835 12.65H78.2344V11.6338H75.6797V22.7956ZM80.0686 18.2227C78.9222 18.2227 78.2672 17.2885 78.2672 15.9281C78.2672 14.5677 78.8567 13.5351 80.0195 13.5351C81.1658 13.5351 81.7062 14.4857 81.7062 15.9281C81.7062 17.354 81.0839 18.2227 80.0686 18.2227Z" fill="#0C1312"/>
<path d="M88.7574 20.2879C90.9519 20.2879 92.5731 19.3372 92.5731 17.5015C92.5731 15.3544 90.8372 14.9774 89.3634 14.7316C88.2989 14.5349 87.349 14.4529 87.349 13.8629C87.349 13.3384 87.8567 13.0926 88.5118 13.0926C89.2487 13.0926 89.7564 13.322 89.8546 14.076H92.3111C92.1801 12.4206 90.9027 11.388 88.5282 11.388C86.5466 11.388 84.909 12.3058 84.909 14.076C84.909 16.0428 86.4647 16.4362 87.9222 16.682C89.0358 16.8787 90.0512 16.9607 90.0512 17.7146C90.0512 18.2555 89.5435 18.5505 88.7411 18.5505C87.8567 18.5505 87.2999 18.1408 87.2017 17.3048H84.6797C84.7616 19.1569 86.301 20.2879 88.7574 20.2879Z" fill="#0C1312"/>
<path d="M96.1978 20.2714C97.3605 20.2714 98.0974 19.8125 98.7034 18.993H98.7525V20.0256H101.307V11.6338H98.6379V16.3214C98.6379 17.3212 98.0811 18.0096 97.164 18.0096C96.3124 18.0096 95.903 17.5015 95.903 16.5836V11.6338H93.25V17.1409C93.25 19.0094 94.2653 20.2714 96.1978 20.2714Z" fill="#0C1312"/>
<path d="M102.469 20.0256H105.138V15.3216C105.138 14.3218 105.629 13.617 106.465 13.617C107.267 13.617 107.644 14.1415 107.644 15.043V20.0256H110.313V15.3216C110.313 14.3218 110.788 13.617 111.64 13.617C112.442 13.617 112.819 14.1415 112.819 15.043V20.0256H115.488V14.5677C115.488 12.6828 114.538 11.388 112.639 11.388C111.558 11.388 110.657 11.8469 110.002 12.8631H109.969C109.543 11.9616 108.708 11.388 107.611 11.388C106.399 11.388 105.597 11.9616 105.073 12.8303H105.023V11.6338H102.469V20.0256Z" fill="#0C1312"/>
<path fill-rule="evenodd" clip-rule="evenodd" d="M13.7173 27.5378C21.2545 27.5378 27.3644 21.4227 27.3644 13.8793C27.3644 6.33589 21.2545 0.220764 13.7173 0.220764C6.1803 0.220764 0.0703125 6.33589 0.0703125 13.8793C0.0703125 21.4227 6.1803 27.5378 13.7173 27.5378ZM15.8238 10.7737C16.987 9.60941 16.987 7.72173 15.8238 6.55741C14.6604 5.3931 12.7743 5.3931 11.611 6.55741C10.4477 7.72173 10.4477 9.60941 11.611 10.7737L13.7173 12.8819L15.8238 10.7737ZM16.8203 15.9875C17.9837 17.1518 19.8698 17.1518 21.0331 15.9875C22.1964 14.8231 22.1964 12.9355 21.0331 11.7711C19.8698 10.6069 17.9837 10.6069 16.8203 11.7711L14.714 13.8793L16.8203 15.9875ZM15.8238 21.2012C16.987 20.0369 16.987 18.1492 15.8238 16.9849L13.7173 14.8768L11.611 16.9849C10.4477 18.1492 10.4477 20.0369 11.611 21.2012C12.7743 22.3655 14.6604 22.3655 15.8238 21.2012ZM6.40161 15.9875C5.23831 14.8231 5.23831 12.9355 6.40161 11.7711C7.56498 10.6069 9.45107 10.6069 10.6144 11.7711L12.7208 13.8793L10.6144 15.9875C9.45107 17.1518 7.56498 17.1518 6.40161 15.9875Z" fill="#0C1312"/>
</g>
<defs>
<clipPath id="clip0_157101_4982">
<rect width="116" height="28" fill="white"/>
</clipPath>
</defs>
</svg>
