<svg width="48" height="48" viewBox="0 0 48 48" fill="none" xmlns="http://www.w3.org/2000/svg">
<rect x="0.5" y="0.5" width="47" height="47" rx="23.5" fill="#173432"/>
<rect x="0.5" y="0.5" width="47" height="47" rx="23.5" stroke="#455D5B"/>
<path d="M33.9684 18.5175C33.8801 18.1719 33.7109 17.8522 33.4747 17.5849C33.2385 17.3176 32.9421 17.1102 32.61 16.98C29.3962 15.7388 24.2812 15.75 24 15.75C23.7188 15.75 18.6037 15.7388 15.39 16.98C15.0579 17.1102 14.7615 17.3176 14.5253 17.5849C14.2891 17.8522 14.1199 18.1719 14.0316 18.5175C13.7888 19.4531 13.5 21.1631 13.5 24C13.5 26.8369 13.7888 28.5469 14.0316 29.4825C14.1198 29.8283 14.289 30.1481 14.5252 30.4156C14.7614 30.6831 15.0578 30.8906 15.39 31.0209C18.4688 32.2088 23.2875 32.25 23.9381 32.25H24.0619C24.7125 32.25 29.5341 32.2088 32.61 31.0209C32.9422 30.8906 33.2386 30.6831 33.4748 30.4156C33.711 30.1481 33.8802 29.8283 33.9684 29.4825C34.2113 28.545 34.5 26.8369 34.5 24C34.5 21.1631 34.2113 19.4531 33.9684 18.5175ZM27.0553 24.6113L23.3053 27.2363C23.1931 27.3148 23.0616 27.3612 22.9249 27.3703C22.7883 27.3794 22.6517 27.351 22.5301 27.288C22.4085 27.225 22.3064 27.1299 22.235 27.013C22.1636 26.8962 22.1256 26.762 22.125 26.625V21.375C22.125 21.2378 22.1627 21.1032 22.2339 20.986C22.3051 20.8687 22.4071 20.7732 22.5289 20.7099C22.6506 20.6465 22.7873 20.6178 22.9242 20.6268C23.0611 20.6358 23.1929 20.6822 23.3053 20.7609L27.0553 23.3859C27.154 23.4551 27.2345 23.547 27.2901 23.6539C27.3457 23.7608 27.3747 23.8795 27.3747 24C27.3747 24.1205 27.3457 24.2392 27.2901 24.3461C27.2345 24.453 27.154 24.5449 27.0553 24.6141V24.6113Z" fill="white"/>
</svg>
